<?xml version="1.0" standalone="no"?><!DOCTYPE svg PUBLIC "-//W3C//DTD SVG 1.1//EN" "http://www.w3.org/Graphics/SVG/1.1/DTD/svg11.dtd"><svg t="1743861731822" class="icon" viewBox="0 0 1024 1024" version="1.1" xmlns="http://www.w3.org/2000/svg" p-id="15248" xmlns:xlink="http://www.w3.org/1999/xlink" width="200" height="200"><path d="M453.8368 752.128H262.6048v26.112h191.232v-26.112z m269.824-581.8368c-4.2496-0.8192-8.6528-1.8944-12.9536-2.56a130.4576 130.4576 0 0 1-14.3872-3.84c4.8128 1.6896 9.6256 2.7648 14.3872 3.84 4.3008 0.6656 8.6016 1.9968 12.9536 2.56z" fill="#E12319" p-id="15249"></path><path d="M0 0m153.6 0l716.8 0q153.6 0 153.6 153.6l0 716.8q0 153.6-153.6 153.6l-716.8 0q-153.6 0-153.6-153.6l0-716.8q0-153.6 153.6-153.6Z" fill="#E12319" p-id="15250"></path><path d="M256 0h512a256 256 0 0 1 256 256v512a256 256 0 0 1-256 256H256a256 256 0 0 1-256-256V256a256 256 0 0 1 256-256zM198.7584 275.456c3.4816-7.0656 7.68-13.7216 12.6976-19.8656 12.4928-15.104 20.992-32.3584 28.2112-50.5344 4.1984-10.24 8.6528-20.4288 12.8-30.7712 4.8128-11.8784 15.1552-13.9264 25.6-10.752 5.12 1.6384 9.7792 4.3008 13.824 7.7824 7.8336 6.6048 16.7424 11.7248 25.2928 17.4592 1.4848 1.024 2.56 1.536 4.1472-0.2048 16.3328-17.664 36.7616-29.5424 58.4704-39.0656 42.752-18.6368 87.7568-31.744 133.888-39.0144a534.9888 534.9888 0 0 1 113.4592-5.632l2.1504-0.1536c2.2528-2.048 4.1984-1.2288 6.2976 0.256 1.3824 0.512 2.8672 0.6144 4.352 0.4096 1.024-0.9216 1.8432-0.9216 2.6624 0.1536 5.376 0.512 10.6496 1.1776 16.0256 1.5872 0.9216-0.8192 1.8432-0.6656 2.56 0.3072l5.376 0.6144c0.7168-0.768 1.2288-0.6144 1.7408 0.2048 1.024 0.512 2.2528 0.768 3.4816 0.512 1.4848-1.28 2.7136-0.8704 3.84 0.6144 8.8576 1.9456 17.92 3.6352 26.8288 5.8368 24.2688 5.9392 47.6672 14.08 67.584 30.1568 16.0256 12.9024 22.2208 29.184 18.8928 49.92a234.1888 234.1888 0 0 1-28.0576 78.1824c-1.7408 3.072-4.7104 4.6592-6.8608 7.2192 1.024 4.7616-3.584 7.0656-4.7104 10.9568-0.9728 3.328-3.8912 5.376-5.9904 7.936-0.1536 0.512-0.2048 1.0752-1.024 0.768 0 0.6656 0.3072 1.536-0.768 0.8704 0.6656 1.8944-1.3312 2.7648-2.1504 3.8912-12.8 16.9472-28.672 30.72-45.3632 43.7248-34.7648 26.9312-74.5472 42.8032-117.76 50.176-10.752 1.8944-21.6576 0-32.3072-1.1776a265.9328 265.9328 0 0 1-23.808-3.3792c-1.4848-0.256-3.2256-1.4848-4.6592 0.1024l-0.6656 0.3072c-0.8192-5.5296-5.7344-3.2256-8.6528-3.7888-24.7296-5.7856-47.4112-16.64-69.4784-28.7744-28.7232-15.872-56.5248-33.024-80.4864-55.9616-18.432-17.664-34.56-37.12-44.544-61.0304A63.5392 63.5392 0 0 1 307.2 230.4c-0.512-3.6352-1.9968-5.8368-5.7344-6.9632 0.6656 8.2944 1.1776 16.64 0.4096 24.7808-2.56 33.0752-18.5344 56.32-50.0736 67.84-10.496 3.7888-20.6848 8.704-32.1536 9.728-15.2064 1.6384-34.3552-14.848-27.5456-33.0752 2.2016-5.7856 3.9936-11.6736 6.656-17.2544z m48.9984 633.088c-7.5264 10.0352-17.2544 13.2096-31.0784 9.0112 4.5056-7.7824 9.6256-14.6944 12.4928-22.528 8.448-22.3744 16.4864-44.9024 23.552-67.7888 2.304-7.2704 4.3008-11.1616 12.544-10.752 10.0864 0.6656 20.0192 0.1536 34.56 0.1536-9.0112 20.1728-15.4624 37.7856-24.6272 53.8112-7.5264 13.568-18.176 25.5488-27.4944 38.0928z m65.024 9.9328v-16.9472c24.4224-8.704 25.6-10.5472 25.6-37.376v-62.7712H224.768v-70.3488H491.52v69.5296H377.9072v43.6736c0 5.376 0.1536 11.008 0 16.4864-0.6144 40.0384-23.3984 60.4672-65.1264 57.7536z m106.4448-101.1712h38.2976l39.0656 101.12c-8.96 2.4576-17.7664 1.024-26.2656-8.192a217.088 217.088 0 0 1-51.2-92.928h0.1024z m81.92-105.472H215.04v-20.1216H337.92c0.6656-5.888 0.9728-10.3936 1.5872-15.872h37.5808l2.4064 16.128h91.648l13.9776-0.1536c18.0736-0.256 18.176-0.1024 16.0256 19.968z m32.4608-210.5344c-5.2736 11.7248-8.2944 24.4736-11.8784 36.7616-0.9216 2.816-1.8432 4.2496-5.0688 4.1472-3.6352 0-8.3456 2.2016-10.6496 0.1024-2.56-2.1504-0.256-6.9632 0-10.496 1.024-14.0288 1.6384-28.0576 0.8192-42.496a33.7408 33.7408 0 0 0-11.7248 7.2704c-13.312 11.0592-24.32 24.3712-36.7104 36.1984-2.048 1.9456-4.1984 3.84-5.9904 6.0416-2.6624 3.3792-6.4 3.7888-10.24 4.096-3.584 0.3584-4.2496-0.7168-2.4576-4.0448 6.656-11.2128 13.1584-22.528 19.8144-33.792 3.4816-6.0928 6.912-12.3904 10.8032-18.432 1.9456-3.0208 0.6656-3.6352-1.8432-4.2496a32.8192 32.8192 0 0 1-12.1856-6.144 28.1088 28.1088 0 0 1-8.96-30.5664 36.864 36.864 0 0 0 5.7856 12.544c8.6528 11.7248 21.4016 9.6256 30.6688 4.4032 1.0752-0.6144 1.6384-1.8944 2.4064-3.1744a7782.4 7782.4 0 0 0 32.6656-55.04c1.7408-2.9696 3.328-3.5328 6.7584-2.9696 14.592 2.7136 29.2864 4.9152 44.1856 3.072 7.3728-0.6656 14.4896-2.8672 20.992-6.4512v7.3216a22920.704 22920.704 0 0 0-0.9216 132.608c0 4.1984-1.2288 4.9152-4.9664 4.5056-9.2672-0.8192-9.1648-0.6144-11.4688-9.8304-2.6624-10.24-4.0448-20.992-7.7824-30.976a42.3936 42.3936 0 0 0-8.448-14.5408c-5.2736-5.2736-9.216-5.2736-14.4896 0a47.3088 47.3088 0 0 0-9.1136 14.1312z m38.4 413.696c-4.9152 4.3008-14.1824 3.584-22.6304 5.376 10.0352-22.7328 19.2-42.7008 27.5968-62.976 3.1744-7.5264 6.4512-15.872 6.6048-23.9104 0.256-15.5136 8.2944-18.3296 21.3504-16.9984 7.5776 0.8192 15.36 0.1536 24.8832 0.1536-11.5712 39.424-28.7744 72.6528-57.856 98.3552h0.1024z m179.2-96.256c2.56-1.0752 2.9696-1.3312 3.4816-1.3312 36.352-3.6352 35.9936-3.584 45.8752 30.8224 3.5328 12.4928 8.3456 24.576 13.5168 36.352 5.0176 11.264 11.52 21.9136 17.4592 33.28-12.544 3.2256-21.76 0.6656-30.3616-8.704a216.9856 216.9856 0 0 1-49.9712-90.4192z m68.096-105.7792c-55.9616 0.0512-112.128 0.3072-168.0896-0.1536-10.752-0.1024-16.8448 2.7136-20.8896 13.2096-6.7072 17.1008-15.1552 33.536-24.1664 53.0944 21.8112 0 41.4208 0.512 61.0304-0.4096 2.2016-0.1536 5.7856-6.1952 5.9904-9.728 0.6656-11.8784 0.256-23.808 0.256-36.7616h38.656v46.7456h110.6944v21.76h-110.4896c0 21.1456 0.1536 40.4992 0 59.7504-0.256 39.9872-22.6816 60.5696-64.3072 58.3168-3.072-10.5984-4.0448-18.6368 10.752-22.2208 5.5296-1.28 12.6976-9.728 12.9536-15.36 1.3312-26.112 0.6144-52.48 0.6144-80.4352h-116.1216l40.2944-87.6032h-49.7152v-21.3504c16.64 0 33.2288 0.2048 49.7664-0.1024 3.8912-0.1024 10.24-0.9728 11.1616-3.2256 9.4208-23.6544 28.672-10.3424 45.5168-14.4896-2.2016 6.7072-3.6864 10.8544-5.7856 17.1008h185.8048c0.1024 7.7824 0.1024 13.5168 0.1024 21.0944-4.3008 0.256-9.1136 0.768-14.08 0.768h0.1024z" fill="#E12319" p-id="15251"></path><path d="M774.912 485.6832c1.1776 2.56-1.28 3.3792-2.304 4.8128-15.0528 19.8144-33.6896 35.84-53.2992 50.944-40.9088 31.3856-87.6032 49.92-138.3936 58.5728-12.5952 2.1504-25.3952 0-37.9904-1.4336a314.88 314.88 0 0 1-27.9552-3.9424c-1.7408-0.3584-3.7376-1.7408-5.4784 0.1024-0.1024 0.1536-0.5632 0.256-0.7168 0.4608-1.024-6.6048-6.8608-3.84-10.1376-4.5568-29.1328-6.7072-55.808-19.3536-81.7664-33.4336-33.6896-18.432-66.3552-38.5536-94.5152-65.28-21.6064-20.6336-40.5504-43.2128-52.2752-71.0656a73.6256 73.6256 0 0 1-5.3248-17.408c-0.6144-4.1984-2.304-6.8096-6.7584-8.0384 0.8704 9.5744 1.4848 19.3024 0.6144 28.7744-3.072 38.6048-21.8112 65.7408-58.9312 79.104-12.3392 4.5056-24.2688 10.0864-37.7344 11.4176-17.92 1.6896-40.3456-17.408-32.256-38.5536 2.56-6.8608 4.7104-13.6192 7.936-20.224 3.9424-8.2432 8.9088-15.9232 14.848-23.04 14.6432-17.6128 24.6784-37.7344 33.1264-58.9824 4.864-11.9296 10.24-23.7056 15.0528-35.84 5.632-13.824 17.7664-16.2304 30.0544-12.4928a46.7456 46.7456 0 0 1 16.2816 9.0624c9.1648 7.68 19.6096 13.6704 29.696 20.3776 1.7408 1.1264 3.0208 1.6384 4.864-0.3072 19.2-20.6336 43.1104-34.4064 68.6592-45.4656a649.984 649.984 0 0 1 157.2864-45.568 633.7024 633.7024 0 0 1 133.3248-6.5536l2.56-0.1024 7.3728 0.256a10.7008 10.7008 0 0 0 5.12 0.4608l3.2256 0.256 18.7904 1.8944 3.0208 0.256 6.2464 0.6656c0.7168 0.1536 1.4848 0.1536 2.048 0.3072a6.5024 6.5024 0 0 0 4.096 0.6656l4.5056 0.6144c10.4448 2.304 21.0944 4.3008 31.5392 6.8608 28.5696 6.9632 56.064 16.2816 79.4112 35.1232 18.8416 15.0528 26.112 33.8944 22.2208 58.1632a272.128 272.128 0 0 1-32.9728 91.136c-1.9968 3.5328-5.5808 5.376-7.9872 8.3456-2.2016 0.768-4.352 1.2288-6.3488 2.1504-10.8544 5.12-22.528 8.6016-34.2016 10.5984-44.544 7.68-90.3168 4.096-133.12-10.24-40.8576-13.7216-73.3184-39.0656-98.9696-73.1136-2.56-3.584-7.424-4.864-10.4448-2.8672-2.8672 1.8432-4.1472 9.0624-1.8944 12.1856 8.0384 11.264 17.2544 21.76 27.136 31.4368 34.56 33.4336 76.8512 51.5072 123.7504 59.8016 29.696 5.2224 59.648 5.12 89.4976 0.9216 10.0352-1.3824 19.7632-4.4032 29.4912-7.168z m-35.84-157.44c9.0112 0.4608 17.92 2.1504 27.136 1.28 11.5712-1.024 22.784-2.816 32.512-9.7792 6.3488-4.5568 7.168-11.6736 2.304-17.664a23.5008 23.5008 0 0 0-6.7072-5.6832 87.0912 87.0912 0 0 0-31.5392-11.0592 148.7872 148.7872 0 0 0-34.7136-0.8704 69.4272 69.4272 0 0 0-26.4192 6.656c-6.144 3.4304-11.7248 8.2944-11.7248 15.36 0 7.5776 6.8608 11.0592 13.056 14.08 11.3152 5.5808 23.808 6.4 36.096 7.68zM506.9312 327.68c-1.024 9.5232 7.3216 19.0464 17.3568 20.224 8.9088 0.9728 20.9408-7.68 21.9648-15.8208 1.1264-8.704-8.0896-19.0464-17.664-19.8656-11.4688-1.024-20.48 5.5296-21.6576 15.4624z" fill="#EEEEEE" p-id="15252"></path><path d="M429.6192 654.6944c1.3312 5.3248 3.584 10.2912 6.8096 14.7456 10.1888 13.6192 25.088 11.2128 35.9424 5.12 1.28-0.768 1.9968-2.304 2.8672-3.7376l38.4-64.1024c2.048-3.4304 3.84-4.1472 7.8848-3.4304 17.3056 3.1744 34.4576 5.7344 51.9168 3.584 8.704-0.8192 17.1008-3.3792 24.6784-7.5776v8.4992a24906.496 24906.496 0 0 0-1.024 154.624c0 4.8128-1.3824 5.6832-5.888 5.2736-10.8544-1.024-10.752-0.8704-13.4144-11.52-3.2256-11.9808-4.7104-24.4736-9.216-36.096a49.3056 49.3056 0 0 0-9.8816-16.9984c-6.144-6.0416-10.752-6.0416-17.0496 0a54.2208 54.2208 0 0 0-10.3424 16.0768c-6.2976 13.7216-9.728 28.4672-14.08 42.8544-0.9216 3.2256-2.048 4.9664-5.8368 4.864-4.3008 0-9.8816 2.56-12.6464 0.1024-2.8672-2.56-0.256-8.1408 0-12.2368 1.28-16.384 2.048-32.7168 1.024-49.5104a39.68 39.68 0 0 0-13.7216 8.448c-15.6672 12.9024-28.5696 28.416-43.2128 42.24-2.4576 2.2016-4.864 4.352-7.0656 6.912-3.1232 4.0448-7.424 4.4544-12.032 4.864-4.1472 0.4096-4.9664-0.8704-2.816-4.6592 7.8848-13.1584 15.5136-26.4192 23.2448-39.424 4.1472-7.168 8.1408-14.5408 12.7488-21.504 2.304-3.584 0.7168-4.2496-2.2016-4.9664a38.7072 38.7072 0 0 1-14.336-7.1168 31.6928 31.6928 0 0 1-10.752-35.2256v-0.1024z" fill="#EEEEEE" p-id="15253"></path><path d="M774.912 485.6832c-9.728 3.072-19.6096 5.4272-29.6448 7.0656-29.696 4.352-59.904 4.0448-89.4976-0.9728-46.848-8.2432-88.9856-26.2656-123.7504-59.6992a218.368 218.368 0 0 1-27.0336-31.4368c-2.304-3.1232-1.024-10.24 1.8432-12.2368 3.1232-1.9456 7.8848-0.7168 10.4448 2.816 25.6 34.2016 58.112 59.5456 98.9184 73.1136 42.8544 14.336 88.576 17.8176 133.12 10.24 11.8272-1.9456 23.296-5.376 34.2528-10.496 1.9456-0.8704 4.1472-1.4336 6.2464-2.0992 1.1776 5.4784-4.3008 8.192-5.5296 12.8-1.1776 3.84-4.608 6.144-7.0656 9.216-0.7168-0.1536-1.1264 0.1024-1.1264 0.8192l0.1024-0.1536c-0.8192 0.1536-1.536 0.1536-1.28 1.024z m-124.0064-222.208c-2.56-0.6144-5.0176-0.6144-7.5264-1.28 2.6112-10.4448 5.12-6.144 7.4752 1.28z m50.0224 5.12c-2.4064-1.4848-5.12-2.2528-7.5264-3.6352 2.9184-6.5024 5.376-4.352 7.5264 3.584v0.0512z m-37.5808-3.84c-2.3552-0.9216-4.7616-0.9216-7.5264-1.8944 2.7648-6.7072 5.4784-5.7856 7.5264 1.8944z m22.0672 2.1504c-2.56-1.024-4.9664-1.024-7.4752-1.8944 2.5088-6.7584 5.0176-5.7856 7.4752 1.8944z m9.3696 1.28c-2.7136-1.0752-5.376-1.0752-7.5776-2.0992 2.7136-6.4512 5.376-5.4784 7.5776 2.0992z" fill="#282526" p-id="15254"></path><path d="M776.4992 490.5984c0.8192-4.608 3.2256-5.5296 6.4-5.5296-0.7168 3.6352-0.7168 8.3456-6.4 5.5296z" fill="#EEEEEE" p-id="15255"></path><path d="M775.1168 489.8816c-0.7168-5.12 3.0208-5.12 6.7584-5.12-0.768 3.584 2.2528 11.5712-6.7584 5.12z" fill="#EEEEEE" p-id="15256"></path><path d="M739.072 328.2432c-12.288-1.28-24.6272-2.304-36.096-7.5264-6.3488-2.9696-13.056-6.5536-13.056-14.08 0-7.0656 5.5808-12.0832 11.7248-15.36 8.192-4.4544 17.0496-5.7344 26.4192-6.656a149.504 149.504 0 0 1 34.7136 0.8192c11.1616 1.3824 21.6064 5.7344 31.5392 11.1616 2.56 1.3824 4.864 3.3792 6.7072 5.632 4.864 5.9904 4.0448 13.1072-2.304 17.664-9.728 6.9632-20.9408 8.6016-32.512 9.728-9.216 0.9216-18.1248-0.9216-27.136-1.3824z" fill="#282526" p-id="15257"></path><path d="M506.88 327.68c1.2288-9.9328 10.24-16.5376 21.8112-15.5136 9.6256 0.8704 18.688 11.264 17.664 19.968-1.024 7.8848-13.056 16.5888-21.9136 15.7696-10.24-1.024-18.5344-10.7008-17.5104-20.224H506.88z" fill="#444243" p-id="15258"></path></svg>