<?xml version="1.0" standalone="no"?><!DOCTYPE svg PUBLIC "-//W3C//DTD SVG 1.1//EN" "http://www.w3.org/Graphics/SVG/1.1/DTD/svg11.dtd"><svg t="1743862011265" class="icon" viewBox="0 0 1024 1024" version="1.1" xmlns="http://www.w3.org/2000/svg" p-id="21387" xmlns:xlink="http://www.w3.org/1999/xlink" width="200" height="200"><path d="M145.909422 114.028469c29.386669 23.03833 59.694872 46.48623 89.951878 69.524559a9.420117 9.420117 0 0 0 6.860303 0c22.167993-10.239258 43.516845-22.167993 65.684838-31.127343 153.537669-62.305883 327.144282-51.196288 470.903459 30.257007a8.54978 8.54978 0 0 0 11.519165 0c21.758423-17.457934 43.926415-34.967065 66.094408-52.015429l22.167993-17.509131C652.240713-45.499165 345.574946-29.679512 145.448655 113.158132c0 0.460767 0.40957 0.460767 0.40957 0.870337z m760.469666 36.246972c-21.297656 27.287622-42.185742 54.62644-63.534594 81.504491a11.160791 11.160791 0 0 0-1.279907 14.89812 533.977287 533.977287 0 0 1 68.654222 236.322066 540.939982 540.939982 0 0 1-69.93413 296.42651c-2.150244 3.430151-1.689478 8.54978 1.279908 11.109594l25.188573 31.536914 44.745556 57.186254a655.158901 655.158901 0 0 0 0-734.513148l-5.119628 5.529199z m-766.920399 28.567529l-26.417285-33.687158a652.240713 652.240713 0 0 0 0 733.642811c23.85747-30.717773 47.356567-60.565209 70.804467-90.822215a10.597632 10.597632 0 0 0 0-7.269873c-10.239258-21.758423-21.758423-42.646508-30.717773-64.404931a540.632804 540.632804 0 0 1 30.308203-472.183367 6.809106 6.809106 0 0 0-0.870337-9.778491 4884.945041 4884.945041 0 0 0-43.107275-55.496776z m483.702532 569.456314v-360.421869c0-5.119629 0.460767-8.95935 6.399536-10.239258 15.358886-3.430151 30.308203-6.399536 45.667089-8.54978a201.969357 201.969357 0 0 1 139.458689 33.277587h2.559815V327.312206a14.590942 14.590942 0 0 0-8.959351-15.358887 228.847409 228.847409 0 0 0-100.242332-26.007714 444.230193 444.230193 0 0 0-164.647263 27.697192 8.652173 8.652173 0 0 0-6.809107 9.829687v436.755535h87.03369l-0.460766-11.928735zM362.572114 471.020187a819.754968 819.754968 0 0 1-52.066626-30.257006 32.100073 32.100073 0 0 1-16.178027-27.748389 40.189086 40.189086 0 0 1 27.697192-41.776171c22.372778-7.679443 46.537426-8.908154 69.52456-3.430151 29.437866 4.710059 56.315917 17.918701 78.074339 37.526879l1.279907-6.809106c0-6.962695-0.153589-13.92539-0.40957-20.888086-0.358374-13.720605-0.767944-27.287622 0.40957-40.95703a25.290966 25.290966 0 0 0-16.638793-26.878052 209.597604 209.597604 0 0 0-122.410325-20.017748 146.728562 146.728562 0 0 0-93.842797 43.926415 117.751463 117.751463 0 0 0 1.689478 161.626682c20.939282 19.198608 44.796752 34.557495 70.804466 45.667089 23.908667 9.778491 46.48623 23.03833 67.425512 38.397216 21.297656 16.178027 28.157959 45.615893 15.768457 69.93413a49.250829 49.250829 0 0 1-47.766137 28.567529 160.705149 160.705149 0 0 1-115.191649-39.677123c-8.498584-6.809106-15.768457-14.89812-24.318237-23.03833v89.183934a15.563672 15.563672 0 0 0 8.54978 15.358886c45.667089 30.717773 101.112669 43.926415 155.687913 37.117309a129.526609 129.526609 0 0 0 83.603539-41.827367 135.977342 135.977342 0 0 0-4.249292-184.306638A349.158686 349.158686 0 0 0 362.572114 471.020187z m418.836834 368.562079a532.441398 532.441398 0 0 1-232.021579 69.93413 532.390202 532.390202 0 0 1-241.851265-38.806786c-23.4479-9.829687-46.076659-21.348852-69.93413-32.407251l-93.433226 72.954711a654.595742 654.595742 0 0 0 425.697137 110.07202 651.472768 651.472768 0 0 0 309.225581-109.66245 9.266528 9.266528 0 0 0-1.689478-2.150244 6401.583885 6401.583885 0 0 0-89.132738-69.93413 9.368921 9.368921 0 0 0-6.860302 0z" fill="#000000" p-id="21388"></path><path d="M775.879749 522.216475v-1.279907a53.24414 53.24414 0 0 0-53.756103-52.476195 54.421654 54.421654 0 0 0-52.476195 50.377147v4.658863c0 29.028295 23.499096 52.066625 52.476195 52.066625 29.437866 0 53.756103-23.908667 53.756103-53.346533z" fill="#EA0414" p-id="21389"></path></svg>