<?xml version="1.0" standalone="no"?><!DOCTYPE svg PUBLIC "-//W3C//DTD SVG 1.1//EN" "http://www.w3.org/Graphics/SVG/1.1/DTD/svg11.dtd"><svg t="1743861918389" class="icon" viewBox="0 0 1137 1024" version="1.1" xmlns="http://www.w3.org/2000/svg" p-id="18341" xmlns:xlink="http://www.w3.org/1999/xlink" width="222.0703125" height="200"><path d="M512 512m-512 0a512 512 0 1 0 1024 0 512 512 0 1 0-1024 0Z" fill="#FFE069" p-id="18342"></path><path d="M489.839444 786.357942c-162.358832 0-294.182809-86.292295-294.18281-192.808234s197.337191-274.55733 272.819805-274.55733c31.617246 0 93.698136 23.926565 50.316996 99.879166-3.033547 5.312267 97.970737-44.150209 153.215466-11.578748s0 84.768401 0 90.564895 110.888234 5.782253 110.888234 95.777469c-0.099694 106.430487-130.542197 192.722782-292.972239 192.722782z m0 0" fill="#DA251C" p-id="18343"></path><path d="M721.044117 392.253241c-18.315216-22.018136-55.914103-16.891015-55.914103-16.891016-7.875828 0.185146-13.957163-5.511655-13.957163-13.102642v-5.411961a16.534965 16.534965 0 0 1 13.586871-15.865591s44.805341-11.393602 79.071599 19.938803 19.55427 88.571015 19.55427 88.571016a16.919499 16.919499 0 0 1-16.235883 13.672322h-12.433269c-7.505535 0-11.963282-5.881947-9.784255-13.102642 0.099694-0.099694 14.341697-35.790153-3.888067-57.822531z m0 0" fill="#ED7108" p-id="18344"></path><path d="M850.446954 466.909819c-1.239054 11.393602-11.87783 20.494242-23.271432 20.494242h-8.8158c-11.493296 0-19.369124-9.114882-17.660084-20.40879 0 0 16.321335-69.016745-21.462698-123.976634s-126.255355-45.574409-126.255354-45.574409c-11.678442 0.199388-20.893018-8.545202-20.893019-19.938804v-10.154548a21.04968 21.04968 0 0 1 20.508484-21.078164s92.273936-8.445508 155.123895 51.98331 42.726008 168.696523 42.726008 168.696523z m0 0" fill="#ED7108" p-id="18345"></path><path d="M462.9363 479.129458c-103.767232 14.626537-180.090125 81.934242-170.505257 150.481001s101.573964 112.21274 205.341196 97.685897 180.175577-81.934242 170.491016-150.466759-101.516996-112.298192-205.326955-97.700139z m0 0" fill="#FFFFFF" p-id="18346"></path><path d="M478.588261 708.610848c-61.710598 11.94904-119.988873-20.608178-130.143421-72.919054s31.603004-104.32267 93.413296-116.285953 119.988873 20.593936 130.143422 72.904813-31.617246 104.336912-93.413297 116.300194z m0 0" fill="#231815" p-id="18347"></path><path d="M412.334465 604.459082c-18.98459 8.830042-28.953992 27.814631-22.217525 42.24178s27.629485 18.98459 46.614075 10.16879 28.953992-27.828873 22.217525-42.256022-27.629485-19.070042-46.614075-10.154548z m68.062531-30.178804a19.26943 19.26943 0 1 0 18.98459 19.26943 19.155494 19.155494 0 0 0-18.98459-19.26943z m0 0" fill="#FFFFFF" p-id="18348"></path></svg>