<?xml version="1.0" standalone="no"?><!DOCTYPE svg PUBLIC "-//W3C//DTD SVG 1.1//EN" "http://www.w3.org/Graphics/SVG/1.1/DTD/svg11.dtd"><svg t="1711700661957" class="icon" viewBox="0 0 1025 1024" version="1.1" xmlns="http://www.w3.org/2000/svg" p-id="8650" xmlns:xlink="http://www.w3.org/1999/xlink" width="200.1953125" height="200"><path d="M0 512a512.988417 512 0 1 0 1025.976834 0 512.988417 512 0 1 0-1025.976834 0Z" fill="#FF7D74" p-id="8651"></path><path d="M1024 563.397683c-15.769205 163.110548-108.46295 303.784031-241.450502 385.482626-8.792958-29.411336-13.561081-60.928-13.561081-93.707861 0-160.246116 113.952618-290.321792 255.011583-291.774765z" fill="#FFFFFF" opacity=".3" p-id="8652"></path><path d="M338.03861 31.629344c-26.420386 134.399012-139.942054 228.015938-260.942085 211.639845C137.374147 146.285714 229.122965 70.962409 338.03861 31.629344z" fill="#FFFFFF" fill-opacity=".4" p-id="8653"></path><path d="M742.453375 461.377236l-44.302827 181.931984c-1.650656 7.79268-5.70712 14.751135-11.505173 19.734734-5.798054 4.983598-12.995707 7.699768-20.412788 7.701745H396.295907V418.274347h82.117684c37.126919 0 67.202471-60.18471 67.202471-100.19583 0-22.828479 17.160896-41.321761 38.344648-41.32176h3.151074c21.183753 0 38.344649 18.493282 38.344648 41.32176v100.19583h85.11061c20.997931 0 36.567475 21.013745 31.886333 43.102889zM365.783475 672.123552h-63.741035c-9.60939 0-17.378347-8.371892-17.378347-18.728525V438.683181c0-10.356633 7.768958-18.728525 17.378347-18.728525h63.741035V672.123552z" fill="#FFFFFF" p-id="8654"></path></svg>