<?xml version="1.0" standalone="no"?><!DOCTYPE svg PUBLIC "-//W3C//DTD SVG 1.1//EN" "http://www.w3.org/Graphics/SVG/1.1/DTD/svg11.dtd"><svg height="1024" node-id="1" sillyvg="true" template-height="1024" template-width="1024" version="1.1" viewBox="0 0 1024 1024" width="1024" xmlns="http://www.w3.org/2000/svg" xmlns:xlink="http://www.w3.org/1999/xlink"><defs node-id="26"><linearGradient gradientUnits="userSpaceOnUse" id="SVGID_1_" node-id="4" spreadMethod="pad" x1="512" x2="512" y1="47" y2="977"><stop offset="0" stop-color="#c0edbb"></stop><stop offset="1" stop-color="#e8f7e7"></stop></linearGradient><clipPath id="SVGID_3_" node-id="16"><path d="M 977.00 512.00 C 977.00 635.33 928.01 753.60 840.80 840.80 C 753.60 928.01 635.33 977.00 512.00 977.00 C 388.67 977.00 270.40 928.01 183.20 840.80 C 95.99 753.60 47.00 635.33 47.00 512.00 C 47.00 388.67 95.99 270.40 183.20 183.20 C 270.40 95.99 388.67 47.00 512.00 47.00 C 635.33 47.00 753.60 95.99 840.80 183.20 C 928.01 270.40 977.00 388.67 977.00 512.00 Z" fill="#000000" fill-rule="nonzero" node-id="35" stroke="none" target-height="930" target-width="930" target-x="47" target-y="47"></path></clipPath></defs><path d="M 977.00 512.00 C 977.00 635.33 928.01 753.60 840.80 840.80 C 753.60 928.01 635.33 977.00 512.00 977.00 C 388.67 977.00 270.40 928.01 183.20 840.80 C 95.99 753.60 47.00 635.33 47.00 512.00 C 47.00 388.67 95.99 270.40 183.20 183.20 C 270.40 95.99 388.67 47.00 512.00 47.00 C 635.33 47.00 753.60 95.99 840.80 183.20 C 928.01 270.40 977.00 388.67 977.00 512.00 Z" fill="url(#SVGID_1_)" fill-rule="nonzero" node-id="39" stroke="none" target-height="930" target-width="930" target-x="47" target-y="47"></path><g node-id="68"><path d="M 331.42 547.48 C 337.54 541.36 344.36 536.06 351.70 531.70 C 375.53 517.57 383.39 486.79 369.26 462.96 C 355.13 439.13 324.35 431.26 300.52 445.40 C 285.98 454.02 272.51 464.49 260.48 476.53 C 181.35 555.66 181.35 684.41 260.48 763.54 L 331.43 692.59 C 291.41 652.58 291.41 587.48 331.42 547.48 Z" fill="#67b394" fill-rule="nonzero" group-id="1" node-id="43" stroke="none" target-height="332.27997" target-width="202.04001" target-x="181.35" target-y="431.26"></path><path d="M 547.48 331.42 C 587.49 291.41 652.58 291.41 692.59 331.42 L 763.54 260.47 C 684.41 181.34 555.66 181.34 476.53 260.47 C 397.40 339.60 397.40 468.35 476.53 547.48 L 547.48 476.53 C 507.47 436.52 507.47 371.42 547.48 331.42 Z" fill="#67b394" fill-rule="nonzero" group-id="1" node-id="45" stroke="none" target-height="366.13998" target-width="366.13998" target-x="397.4" target-y="181.34"></path><path d="M 547.48 763.54 C 626.61 684.41 626.61 555.66 547.48 476.53 L 476.53 547.48 C 516.54 587.49 516.54 652.58 476.53 692.59 C 436.52 732.60 371.43 732.60 331.42 692.59 L 260.47 763.54 C 339.59 842.67 468.35 842.67 547.48 763.54 Z" fill="#417c64" fill-rule="nonzero" group-id="1" node-id="47" stroke="none" target-height="366.13998" target-width="366.13998" target-x="260.47" target-y="476.53"></path><path d="M 692.58 476.52 C 672.99 496.11 672.99 527.88 692.58 547.47 C 712.17 567.06 743.94 567.06 763.53 547.47 C 842.66 468.34 842.66 339.59 763.53 260.46 L 692.58 331.41 C 732.59 371.42 732.59 436.52 692.58 476.52 Z" fill="#417c64" fill-rule="nonzero" group-id="1" node-id="49" stroke="none" target-height="306.6" target-width="169.66998" target-x="672.99" target-y="260.46"></path></g><g clip-path="url(#SVGID_3_)" group-id="2" node-id="56"><path d="M 1088.32 1135.19 L 631.55 1135.19 C 617.87 1135.19 606.78 1124.10 606.78 1110.42 L 606.78 446.16 C 606.78 432.48 617.87 421.39 631.55 421.39 L 1088.32 421.39 C 1102.00 421.39 1113.09 432.48 1113.09 446.16 L 1113.09 1110.42 C 1113.10 1124.10 1102.01 1135.19 1088.32 1135.19 Z" fill="#d0e7ea" fill-opacity="0.49" fill-rule="nonzero" group-id="2,3,4" node-id="58" stroke="none" target-height="713.7999" target-width="506.31995" target-x="606.78" target-y="421.39"></path><path d="M 571.16 469.39 C 557.48 469.39 546.39 480.48 546.39 494.16 L 546.39 1093.87 L 1006.76 469.38 L 571.16 469.38 Z" fill="#ffffff" fill-rule="nonzero" group-id="2,3,4" node-id="60" stroke="none" target-height="624.49" target-width="460.37" target-x="546.39" target-y="469.38"></path><path d="M 571.16 1183.19 L 1027.93 1183.19 C 1041.61 1183.19 1052.70 1172.10 1052.70 1158.42 L 1052.70 494.16 C 1052.70 480.48 1041.61 469.39 1027.93 469.39 L 1006.75 469.39 L 546.38 1103.88 L 546.38 1158.42 C 546.39 1172.10 557.48 1183.19 571.16 1183.19 Z" fill="#dfeef0" fill-rule="nonzero" group-id="2,3,4" node-id="62" stroke="none" target-height="713.7999" target-width="506.31995" target-x="546.38" target-y="469.39"></path><path d="M 898.65 611.84 L 652.45 611.84 C 639.25 611.84 628.45 601.04 628.45 587.84 L 628.45 587.84 C 628.45 574.64 639.25 563.84 652.45 563.84 L 898.64 563.84 C 911.84 563.84 922.64 574.64 922.64 587.84 L 922.64 587.84 C 922.65 601.04 911.85 611.84 898.65 611.84 Z" fill="#77c49e" fill-rule="nonzero" group-id="2,3,4" node-id="64" stroke="none" target-height="48" target-width="294.2" target-x="628.45" target-y="563.84"></path><path d="M 781.35 727.97 L 655.94 727.97 C 642.74 727.97 631.94 717.17 631.94 703.97 L 631.94 703.97 C 631.94 690.77 642.74 679.97 655.94 679.97 L 781.36 679.97 C 794.56 679.97 805.36 690.77 805.36 703.97 L 805.36 703.97 C 805.35 717.17 794.55 727.97 781.35 727.97 Z" fill="#77c49e" fill-rule="nonzero" group-id="2,3,4" node-id="66" stroke="none" target-height="48" target-width="173.41998" target-x="631.94" target-y="679.97"></path></g></svg>